<?xml version="1.0" encoding="UTF-8" standalone="no"?>
<!-- Created with Inkscape (http://www.inkscape.org/) -->

<svg
   xmlns:dc="http://purl.org/dc/elements/1.1/"
   xmlns:cc="http://creativecommons.org/ns#"
   xmlns:rdf="http://www.w3.org/1999/02/22-rdf-syntax-ns#"
   xmlns:svg="http://www.w3.org/2000/svg"
   xmlns="http://www.w3.org/2000/svg"
   xmlns:sodipodi="http://sodipodi.sourceforge.net/DTD/sodipodi-0.dtd"
   xmlns:inkscape="http://www.inkscape.org/namespaces/inkscape"
   id="svg2"
   version="1.1"
   inkscape:version="0.48.4 r9939"
   width="170"
   height="200"
   sodipodi:docname="logo.png"
   inkscape:export-filename="/home/piero/Desktop/progetti/cordovaHello/hello/www/img/logo.png"
   inkscape:export-xdpi="90"
   inkscape:export-ydpi="90">
  <metadata
     id="metadata8">
    <rdf:RDF>
      <cc:Work
         rdf:about="">
        <dc:format>image/svg+xml</dc:format>
        <dc:type
           rdf:resource="http://purl.org/dc/dcmitype/StillImage" />
        <dc:title></dc:title>
      </cc:Work>
    </rdf:RDF>
  </metadata>
  <defs
     id="defs6" />
  <sodipodi:namedview
     pagecolor="#ffffff"
     bordercolor="#666666"
     borderopacity="1"
     objecttolerance="10"
     gridtolerance="10"
     guidetolerance="10"
     inkscape:pageopacity="0"
     inkscape:pageshadow="2"
     inkscape:window-width="1079"
     inkscape:window-height="626"
     id="namedview4"
     showgrid="false"
     inkscape:zoom="2.5705411"
     inkscape:cx="88.874036"
     inkscape:cy="98.134136"
     inkscape:window-x="47"
     inkscape:window-y="24"
     inkscape:window-maximized="0"
     inkscape:current-layer="svg2" />
  <path
     sodipodi:type="arc"
     style="fill:#ffc2c2;fill-opacity:1;stroke:#ffffff;stroke-width:4.87297678;stroke-miterlimit:4;stroke-opacity:1;stroke-dasharray:none"
     id="path2987-2"
     sodipodi:cx="93.644066"
     sodipodi:cy="105.93221"
     sodipodi:rx="61.440678"
     sodipodi:ry="59.322033"
     d="m 155.08474,105.93221 a 61.440678,59.322033 0 1 1 -122.881352,0 61.440678,59.322033 0 1 1 122.881352,0 z"
     transform="matrix(0.03064893,0.57029884,-0.45871416,0.02465215,93.603872,2.2461526)" />
  <path
     sodipodi:type="arc"
     style="fill:#ffc2c2;fill-opacity:1;stroke:#ffffff;stroke-width:4.87297678;stroke-miterlimit:4;stroke-opacity:1;stroke-dasharray:none"
     id="path2987-2-0"
     sodipodi:cx="93.644066"
     sodipodi:cy="105.93221"
     sodipodi:rx="61.440678"
     sodipodi:ry="59.322033"
     d="m 155.08474,105.93221 a 61.440678,59.322033 0 1 1 -122.881352,0 61.440678,59.322033 0 1 1 122.881352,0 z"
     transform="matrix(0.03064893,0.57029884,-0.45871416,0.02465215,170.46828,0.661407)" />
  <path
     sodipodi:type="arc"
     style="fill:#ffc2c2;fill-opacity:1;stroke:#ffffff;stroke-width:4.8729767;stroke-miterlimit:4;stroke-opacity:1;stroke-dasharray:none"
     id="path2987"
     sodipodi:cx="93.644066"
     sodipodi:cy="105.93221"
     sodipodi:rx="61.440678"
     sodipodi:ry="59.322033"
     d="m 155.08474,105.93221 a 61.440678,59.322033 0 1 1 -122.881352,0 61.440678,59.322033 0 1 1 122.881352,0 z"
     transform="matrix(1.1438478,0,0,0.92041375,-21.521336,-7.2472183)" />
  <path
     sodipodi:type="arc"
     style="fill:#ffc2c2;fill-opacity:1;stroke:#ffffff;stroke-width:6.9206545;stroke-miterlimit:4;stroke-opacity:1;stroke-dasharray:none"
     id="path2987-2-2"
     sodipodi:cx="93.644066"
     sodipodi:cy="105.93221"
     sodipodi:rx="61.440678"
     sodipodi:ry="59.322033"
     d="m 155.08474,105.93221 a 61.440678,59.322033 0 1 1 -122.881352,0 61.440678,59.322033 0 1 1 122.881352,0 z"
     transform="matrix(-1.2059209,-0.01084326,0.01387454,-0.60973263,198.74569,172.80912)" />
  <path
     sodipodi:type="arc"
     style="fill:#ffffff;fill-opacity:1;stroke:#ffffff;stroke-width:0;stroke-miterlimit:4;stroke-opacity:1;stroke-dasharray:none"
     id="path3802"
     sodipodi:cx="21.822035"
     sodipodi:cy="169.70338"
     sodipodi:rx="9.1101694"
     sodipodi:ry="9.1101694"
     d="m 30.932204,169.70338 a 9.1101694,9.1101694 0 1 1 -18.220339,0 9.1101694,9.1101694 0 1 1 18.220339,0 z"
     transform="matrix(0.37209302,0,0,0.39534883,50.778479,-5.4394968)" />
  <path
     sodipodi:type="arc"
     style="fill:#ffffff;fill-opacity:1;stroke:#ffffff;stroke-width:0;stroke-miterlimit:4;stroke-opacity:1;stroke-dasharray:none"
     id="path3802-5"
     sodipodi:cx="21.822035"
     sodipodi:cy="169.70338"
     sodipodi:rx="9.1101694"
     sodipodi:ry="9.1101694"
     d="m 30.932204,169.70338 a 9.1101694,9.1101694 0 1 1 -18.220339,0 9.1101694,9.1101694 0 1 1 18.220339,0 z"
     transform="matrix(0.37209302,0,0,0.39534883,100.77848,-7.6513566)" />
  <text
     xml:space="preserve"
     style="font-size:47.51632308999999310px;font-style:normal;font-weight:normal;line-height:125%;letter-spacing:0px;word-spacing:0px;fill:#f5ff00;fill-opacity:1;stroke:none;font-family:Sans"
     x="25.847969"
     y="154.96826"
     id="text3842"
     sodipodi:linespacing="125%"
     transform="scale(1.2872192,0.77686846)"><tspan
       sodipodi:role="line"
       id="tspan3844"
       x="25.847969"
       y="154.96826">€</tspan></text>
  <text
     xml:space="preserve"
     style="font-size:47.51632308999999310px;font-style:normal;font-weight:normal;line-height:125%;letter-spacing:0px;word-spacing:0px;fill:#f5ff00;fill-opacity:1;stroke:none;font-family:Sans"
     x="-110.18312"
     y="153.62762"
     id="text3842-7"
     sodipodi:linespacing="125%"
     transform="scale(-1.2872192,0.77686846)"><tspan
       sodipodi:role="line"
       id="tspan3844-9"
       x="-110.18312"
       y="153.62762">€</tspan></text>
</svg>
